{
	"asset":{
		"generator":"Khronos glTF Blender I/O v4.2.57",
		"version":"2.0"
	},
	"extensionsUsed":[
		"KHR_materials_emissive_strength",
		"KHR_texture_transform"
	],
	"extensionsRequired":[
		"KHR_texture_transform"
	],
	"scene":0,
	"scenes":[
		{
			"extras":{
				"keentools_gt_settings":{},
				"uuid":"abb04f43-8c65-4664-9021-55488a8567b8",
				"assets reported":{},
				"keentools_fb_settings":{}
			},
			"name":"Scene",
			"nodes":[
				0,
				1,
				2,
				3,
				4,
				5
			]
		}
	],
	"nodes":[
		{
			"mesh":0,
			"name":"Torus",
			"rotation":[
				0.7071068286895752,
				0,
				0,
				0.7071068286895752
			],
			"translation":[
				0,
				1.3734179735183716,
				0
			]
		},
		{
			"mesh":1,
			"name":"Icosphere",
			"scale":[
				0.5255041718482971,
				0.5255041718482971,
				0.5255041718482971
			],
			"translation":[
				0,
				1.3734179735183716,
				0
			]
		},
		{
			"mesh":2,
			"name":"Plane",
			"translation":[
				0,
				-0.6817103028297424,
				2.9358930587768555
			]
		},
		{
			"mesh":3,
			"name":"Plane.001",
			"rotation":[
				0.7071068286895752,
				0,
				0,
				0.7071068286895752
			],
			"translation":[
				0,
				4.797389507293701,
				-2.389484167098999
			]
		},
		{
			"camera":0,
			"name":"Camera",
			"translation":[
				0,
				1.3604873418807983,
				6.96835994720459
			]
		},
		{
			"name":"Area",
			"rotation":[
				-0.23504739999771118,
				0.27652400732040405,
				-0.2726566791534424,
				0.8910362124443054
			],
			"translation":[
				3.50823712348938,
				2.8989450931549072,
				4.5408101081848145
			]
		}
	],
	"cameras":[
		{
			"name":"Camera.001",
			"perspective":{
				"aspectRatio":1.7777777777777777,
				"yfov":0.39959652046304894,
				"zfar":1000,
				"znear":0.10000000149011612
			},
			"type":"perspective"
		}
	],
	"materials":[
		{
			"doubleSided":true,
			"emissiveFactor":[
				1,
				0.007651384804539621,
				0.13053883790873846
			],
			"extensions":{
				"KHR_materials_emissive_strength":{
					"emissiveStrength":1.4891374111175537
				}
			},
			"name":"CORE",
			"pbrMetallicRoughness":{
				"baseColorFactor":[
					0,
					0,
					0,
					1
				],
				"metallicFactor":0,
				"roughnessFactor":0.0785713791847229
			}
		},
		{
			"doubleSided":true,
			"name":"Material",
			"pbrMetallicRoughness":{
				"baseColorTexture":{
					"extensions":{
						"KHR_texture_transform":{
							"offset":[
								0,
								-1
							],
							"scale":[
								2,
								2
							]
						}
					},
					"index":0
				},
				"metallicFactor":0,
				"metallicRoughnessTexture":{
					"extensions":{
						"KHR_texture_transform":{
							"offset":[
								0,
								-1
							],
							"scale":[
								2,
								2
							]
						}
					},
					"index":1
				}
			}
		}
	],
	"meshes":[
		{
			"name":"Torus",
			"primitives":[
				{
					"attributes":{
						"POSITION":0,
						"NORMAL":1,
						"TEXCOORD_0":2
					},
					"indices":3
				}
			]
		},
		{
			"name":"Icosphere",
			"primitives":[
				{
					"attributes":{
						"POSITION":4,
						"NORMAL":5,
						"TEXCOORD_0":6
					},
					"indices":7,
					"material":0
				}
			]
		},
		{
			"name":"Plane",
			"primitives":[
				{
					"attributes":{
						"POSITION":8,
						"NORMAL":9,
						"TEXCOORD_0":10
					},
					"indices":11,
					"material":1
				}
			]
		},
		{
			"name":"Plane.001",
			"primitives":[
				{
					"attributes":{
						"POSITION":12,
						"NORMAL":13,
						"TEXCOORD_0":14
					},
					"indices":15,
					"material":1
				}
			]
		}
	],
	"textures":[
		{
			"sampler":0,
			"source":0
		},
		{
			"sampler":0,
			"source":1
		}
	],
	"images":[
		{
			"mimeType":"image/png",
			"name":"Concrete007_4K-PNG_Roughness",
			"uri":"/Concrete007_4K-PNG_Roughness.png"
		},
		{
			"mimeType":"image/png",
			"name":"Concrete007_4K-PNG_Color",
			"uri":"/Concrete007_4K-PNG_Color.png"
		}
	],
	"accessors":[
		{
			"bufferView":0,
			"componentType":5126,
			"count":484,
			"max":[
				1.25,
				0.21650634706020355,
				1.25
			],
			"min":[
				-1.25,
				-0.21650634706020355,
				-1.25
			],
			"type":"VEC3"
		},
		{
			"bufferView":1,
			"componentType":5126,
			"count":484,
			"type":"VEC3"
		},
		{
			"bufferView":2,
			"componentType":5126,
			"count":484,
			"type":"VEC2"
		},
		{
			"bufferView":3,
			"componentType":5123,
			"count":864,
			"type":"SCALAR"
		},
		{
			"bufferView":4,
			"componentType":5126,
			"count":2737,
			"max":[
				1,
				1,
				0.9999999403953552
			],
			"min":[
				-0.9999999403953552,
				-1,
				-0.9999999403953552
			],
			"type":"VEC3"
		},
		{
			"bufferView":5,
			"componentType":5126,
			"count":2737,
			"type":"VEC3"
		},
		{
			"bufferView":6,
			"componentType":5126,
			"count":2737,
			"type":"VEC2"
		},
		{
			"bufferView":7,
			"componentType":5123,
			"count":15360,
			"type":"SCALAR"
		},
		{
			"bufferView":8,
			"componentType":5126,
			"count":4,
			"max":[
				4.843799591064453,
				0,
				4.843799591064453
			],
			"min":[
				-4.843799591064453,
				0,
				-4.843799591064453
			],
			"type":"VEC3"
		},
		{
			"bufferView":9,
			"componentType":5126,
			"count":4,
			"type":"VEC3"
		},
		{
			"bufferView":10,
			"componentType":5126,
			"count":4,
			"type":"VEC2"
		},
		{
			"bufferView":11,
			"componentType":5123,
			"count":6,
			"type":"SCALAR"
		},
		{
			"bufferView":12,
			"componentType":5126,
			"count":10404,
			"max":[
				4.843799591064453,
				0,
				4.843799591064453
			],
			"min":[
				-4.843799591064453,
				0,
				-4.843799591064453
			],
			"type":"VEC3"
		},
		{
			"bufferView":13,
			"componentType":5126,
			"count":10404,
			"type":"VEC3"
		},
		{
			"bufferView":14,
			"componentType":5126,
			"count":10404,
			"type":"VEC2"
		},
		{
			"bufferView":15,
			"componentType":5123,
			"count":61206,
			"type":"SCALAR"
		}
	],
	"bufferViews":[
		{
			"buffer":0,
			"byteLength":5808,
			"byteOffset":0,
			"target":34962
		},
		{
			"buffer":0,
			"byteLength":5808,
			"byteOffset":5808,
			"target":34962
		},
		{
			"buffer":0,
			"byteLength":3872,
			"byteOffset":11616,
			"target":34962
		},
		{
			"buffer":0,
			"byteLength":1728,
			"byteOffset":15488,
			"target":34963
		},
		{
			"buffer":0,
			"byteLength":32844,
			"byteOffset":17216,
			"target":34962
		},
		{
			"buffer":0,
			"byteLength":32844,
			"byteOffset":50060,
			"target":34962
		},
		{
			"buffer":0,
			"byteLength":21896,
			"byteOffset":82904,
			"target":34962
		},
		{
			"buffer":0,
			"byteLength":30720,
			"byteOffset":104800,
			"target":34963
		},
		{
			"buffer":0,
			"byteLength":48,
			"byteOffset":135520,
			"target":34962
		},
		{
			"buffer":0,
			"byteLength":48,
			"byteOffset":135568,
			"target":34962
		},
		{
			"buffer":0,
			"byteLength":32,
			"byteOffset":135616,
			"target":34962
		},
		{
			"buffer":0,
			"byteLength":12,
			"byteOffset":135648,
			"target":34963
		},
		{
			"buffer":0,
			"byteLength":124848,
			"byteOffset":135660,
			"target":34962
		},
		{
			"buffer":0,
			"byteLength":124848,
			"byteOffset":260508,
			"target":34962
		},
		{
			"buffer":0,
			"byteLength":83232,
			"byteOffset":385356,
			"target":34962
		},
		{
			"buffer":0,
			"byteLength":122412,
			"byteOffset":468588,
			"target":34963
		}
	],
	"samplers":[
		{
			"magFilter":9729,
			"minFilter":9987
		}
	],
	"buffers":[
		{
			"byteLength":591000,
			"uri":"1.bin"
		}
	]
}
