{
	"asset":{
		"generator":"Khronos glTF Blender I/O v4.2.57",
		"version":"2.0"
	},
	"extensionsUsed":[
		"KHR_materials_emissive_strength"
	],
	"scene":0,
	"scenes":[
		{
			"name":"Scene",
			"nodes":[
				0,
				1
			]
		}
	],
	"nodes":[
		{
			"mesh":0,
			"name":"Curve",
			"rotation":[
				0,
				0,
				-0.7071068286895752,
				0.7071068286895752
			],
			"translation":[
				0,
				0.16115422546863556,
				0
			]
		},
		{
			"mesh":1,
			"name":"Curve.002",
			"rotation":[
				0,
				0,
				-0.7071068286895752,
				0.7071068286895752
			],
			"translation":[
				0,
				0.16115422546863556,
				0
			]
		}
	],
	"materials":[
		{
			"doubleSided":true,
			"emissiveFactor":[
				0.2962936893602351,
				0.5434352409720968,
				1
			],
			"extensions":{
				"KHR_materials_emissive_strength":{
					"emissiveStrength":8.713674545288086
				}
			},
			"name":"inner",
			"pbrMetallicRoughness":{
				"baseColorFactor":[
					0.2581806778907776,
					0.4735317826271057,
					0.8713674545288086,
					1
				],
				"metallicFactor":0,
				"roughnessFactor":0.5
			}
		},
		{
			"doubleSided":true,
			"emissiveFactor":[
				0.2962936893602351,
				0.5434352409720968,
				1
			],
			"extensions":{
				"KHR_materials_emissive_strength":{
					"emissiveStrength":2.614102363586426
				}
			},
			"name":"outer",
			"pbrMetallicRoughness":{
				"baseColorFactor":[
					0.2581806778907776,
					0.4735317826271057,
					0.8713674545288086,
					1
				],
				"metallicFactor":0,
				"roughnessFactor":0.5
			}
		}
	],
	"meshes":[
		{
			"name":"Curve",
			"primitives":[
				{
					"attributes":{
						"POSITION":0,
						"NORMAL":1,
						"TEXCOORD_0":2
					},
					"indices":3,
					"material":0
				}
			]
		},
		{
			"name":"Curve.002",
			"primitives":[
				{
					"attributes":{
						"POSITION":4,
						"NORMAL":5,
						"TEXCOORD_0":6
					},
					"indices":7,
					"material":1
				}
			]
		}
	],
	"accessors":[
		{
			"bufferView":0,
			"componentType":5126,
			"count":194,
			"max":[
				0.07874161005020142,
				0.006000000052154064,
				-0.05671584606170654
			],
			"min":[
				0.056727826595306396,
				-0.006000000052154064,
				-0.07872498035430908
			],
			"type":"VEC3"
		},
		{
			"bufferView":1,
			"componentType":5126,
			"count":194,
			"type":"VEC3"
		},
		{
			"bufferView":2,
			"componentType":5126,
			"count":194,
			"type":"VEC2"
		},
		{
			"bufferView":3,
			"componentType":5123,
			"count":564,
			"type":"SCALAR"
		},
		{
			"bufferView":4,
			"componentType":5126,
			"count":4252,
			"max":[
				0.1346227526664734,
				0.006000000052154064,
				-0.007613465189933777
			],
			"min":[
				0.0008466839790344238,
				-0.006000000052154064,
				-0.12782736122608185
			],
			"type":"VEC3"
		},
		{
			"bufferView":5,
			"componentType":5126,
			"count":4252,
			"type":"VEC3"
		},
		{
			"bufferView":6,
			"componentType":5126,
			"count":4252,
			"type":"VEC2"
		},
		{
			"bufferView":7,
			"componentType":5123,
			"count":12816,
			"type":"SCALAR"
		}
	],
	"bufferViews":[
		{
			"buffer":0,
			"byteLength":2328,
			"byteOffset":0,
			"target":34962
		},
		{
			"buffer":0,
			"byteLength":2328,
			"byteOffset":2328,
			"target":34962
		},
		{
			"buffer":0,
			"byteLength":1552,
			"byteOffset":4656,
			"target":34962
		},
		{
			"buffer":0,
			"byteLength":1128,
			"byteOffset":6208,
			"target":34963
		},
		{
			"buffer":0,
			"byteLength":51024,
			"byteOffset":7336,
			"target":34962
		},
		{
			"buffer":0,
			"byteLength":51024,
			"byteOffset":58360,
			"target":34962
		},
		{
			"buffer":0,
			"byteLength":34016,
			"byteOffset":109384,
			"target":34962
		},
		{
			"buffer":0,
			"byteLength":25632,
			"byteOffset":143400,
			"target":34963
		}
	],
	"buffers":[
		{
			"byteLength":169032,
			"uri":"react.bin"
		}
	]
}
